<svg
 xmlns="http://www.w3.org/2000/svg"
 xmlns:xlink="http://www.w3.org/1999/xlink"
 width="180mm" height="180mm">
<defs>
<linearGradient id="PSgrad_0" x1="0%" x2="50%" y1="0%" y2="86.603%">
  <stop offset="0%" stop-color="rgb(93,24,201)" stop-opacity="1" />
  <stop offset="65%" stop-color="rgb(156,32,160)" stop-opacity="1" />
  <stop offset="100%" stop-color="rgb(219,39,119)" stop-opacity="1" />
</linearGradient>

</defs>
<path fill-rule="evenodd"  fill="rgb(145, 129, 104)"
 d="M124.696,303.493 C126.76,321.519 130.752,337.970 138.723,352.861 C146.679,367.769 157.248,380.583 170.415,391.317 C183.566,402.68 198.470,410.545 215.95,416.781 C231.720,423.17 249.27,426.135 267.49,426.135 C298.221,426.135 324.539,420.418 346.18,408.986 C366.862,397.883 384.111,382.694 397.789,363.414 L368.80,339.782 L497.974,324.271 L512.80,454.325 L481.49,429.642 C431.893,495.196 360.925,527.990 268.88,527.990 C229.285,527.990 193.616,521.916 161.63,509.802 C128.495,497.687 100.278,480.538 76.379,458.354 C52.480,436.187 33.777,408.986 20.269,376.766 C6.761,344.547 0.7,308.7 0.7,267.116 C0.7,226.939 6.761,190.384 20.269,157.466 C33.777,124.564 52.302,96.502 75.860,73.279 C99.401,50.73 127.294,32.63 159.505,19.234 C191.716,6.421 226.525,0.6 263.932,0.6 C298.562,0.6 330.595,5.722 360.46,17.155 C389.481,28.588 414.938,45.575 436.418,68.83 C457.881,90.607 474.685,118.669 486.813,152.269 C498.924,185.885 504.996,225.201 504.996,270.234 C504.996,275.788 504.996,281.326 504.996,286.863 C504.996,292.417 504.639,297.955 503.957,303.493 L124.696,303.493 ZM373.554,168.379 C369.40,153.828 361.945,141.15 352.253,129.923 C342.544,118.848 330.254,110.14 315.366,103.420 C300.461,96.843 282.976,93.547 262.893,93.547 C225.486,93.547 193.794,104.817 167.817,127.325 C141.841,149.849 127.456,178.772 124.696,214.110 L380.308,214.110 C380.308,198.179 378.51,182.930 373.554,168.379 Z"/>
<path stroke="rgb(183, 183, 183)" stroke-width="0px" stroke-linecap="butt" stroke-linejoin="miter" fill="url(#PSgrad_0)"
 d="M124.696,303.493 C126.76,321.519 130.752,337.970 138.723,352.861 C146.679,367.769 157.248,380.583 170.415,391.317 C183.566,402.68 198.470,410.545 215.95,416.781 C231.720,423.17 249.27,426.135 267.49,426.135 C298.221,426.135 324.539,420.418 346.18,408.986 C366.862,397.883 384.111,382.694 397.789,363.414 L368.80,339.782 L497.974,324.271 L512.80,454.325 L481.49,429.642 C431.893,495.196 360.925,527.990 268.88,527.990 C229.285,527.990 193.616,521.916 161.63,509.802 C128.495,497.687 100.278,480.538 76.379,458.354 C52.480,436.187 33.777,408.986 20.269,376.766 C6.761,344.547 0.7,308.7 0.7,267.116 C0.7,226.939 6.761,190.384 20.269,157.466 C33.777,124.564 52.302,96.502 75.860,73.279 C99.401,50.73 127.294,32.63 159.505,19.234 C191.716,6.421 226.525,0.6 263.932,0.6 C298.562,0.6 330.595,5.722 360.46,17.155 C389.481,28.588 414.938,45.575 436.418,68.83 C457.881,90.607 474.685,118.669 486.813,152.269 C498.924,185.885 504.996,225.201 504.996,270.234 C504.996,275.788 504.996,281.326 504.996,286.863 C504.996,292.417 504.639,297.955 503.957,303.493 L124.696,303.493 ZM373.554,168.379 C369.40,153.828 361.945,141.15 352.253,129.923 C342.544,118.848 330.254,110.14 315.366,103.420 C300.461,96.843 282.976,93.547 262.893,93.547 C225.486,93.547 193.794,104.817 167.817,127.325 C141.841,149.849 127.456,178.772 124.696,214.110 L380.308,214.110 C380.308,198.179 378.51,182.930 373.554,168.379 Z"/>
</svg>
